<svg version="1.1" xmlns="http://www.w3.org/2000/svg" viewBox="-293.8879997253418 -1806.72001953125 6851.835120478928 2842.368017578125"><desc>Created with Snap</desc><defs></defs><g><rect x="-293.8879997253418" y="-1806.72001953125" width="6851.835120478928" height="2842.368017578125" fill="#5c0a27" style=""></rect><g transform="matrix(27.1521,0,0,27.1521,3915.6654,-1606.6337)"><g><path d="M37.3,74.5c-2.8,0-5-2.2-5-5V20.9c0-2.3,1.5-4.2,3.7-4.8l43.6-12C81.2,3.7,82.8,4.1,84,5c1.2,0.9,2,2.4,2,4v59.4   c0,2.8-2.2,5-5,5s-5-2.2-5-5V15.5l-33.6,9.2v44.7C42.3,72.3,40.1,74.5,37.3,74.5z" fill="#ffffff" style=""></path><path d="M66.7,85.1c-10.7,0-19.3-7.5-19.3-16.7c0-9.2,8.7-16.7,19.3-16.7S86,59.1,86,68.3C86,77.6,77.3,85.1,66.7,85.1z M66.7,61.6   c-5.1,0-9.3,3.1-9.3,6.7c0,3.7,4.3,6.7,9.3,6.7S76,72,76,68.3C76,64.7,71.7,61.6,66.7,61.6z" fill="#ffffff" style=""></path><path d="M23,86C12.4,86,3.7,78.5,3.7,69.3S12.4,52.5,23,52.5S42.3,60,42.3,69.3S33.7,86,23,86z M23,62.5c-5.1,0-9.3,3.1-9.3,6.7   S18,76,23,76s9.3-3.1,9.3-6.7S28.1,62.5,23,62.5z" fill="#ffffff" style=""></path><rect x="54.5" y="11.8" transform="matrix(0.2643 0.9644 -0.9644 0.2643 76.9828 -32.0267)" width="10" height="45.2" fill="#ffffff" style=""></rect></g><desc>Created with Snap</desc><defs></defs></g><g><g transform="matrix(1.024,0,0,-1.024,0,0)"><path d="M188 0L13 0L105 456L32 860L200 860L245 564L284 860L453 860L379 456L471 0L297 0L243 336L188 0ZM765 249L513 249L513 362L765 362L765 249ZM833 0L833 859L1066 859Q1160 859 1202 813Q1245 767 1245 663L1245 625Q1245 502 1157 478Q1211 464 1233 413Q1255 362 1255 278Q1255 141 1214 70Q1173 0 1066 0L833 0ZM1001 536L1036 536Q1058 536 1066 552Q1074 569 1074 599L1074 685Q1074 727 1037 727L1001 727L1001 536ZM1018 151Q1085 151 1085 215L1085 322Q1085 361 1073 381Q1062 401 1033 401L1001 401L1001 152L1018 151ZM1442 -8Q1357 -8 1325 48Q1294 105 1294 210Q1294 296 1316 342Q1339 388 1379 409Q1419 431 1501 457L1549 473L1549 475L1549 548Q1549 577 1537 592Q1526 608 1510 608Q1496 608 1485 595Q1475 582 1475 560L1475 516L1305 516L1305 540Q1305 648 1355 694Q1406 740 1520 740Q1611 740 1668 692Q1725 645 1725 558L1725 0L1551 0L1551 87Q1538 42 1509 17Q1481 -8 1442 -8ZM1511 128Q1531 128 1539 144Q1548 161 1548 185L1548 389Q1509 374 1490 351Q1472 328 1472 287L1472 193Q1472 128 1511 128ZM1792 0L1792 732L1967 732L1967 639Q1978 684 2005 712Q2032 740 2077 740Q2151 740 2186 694Q2222 649 2222 565L2222 0L2050 0L2050 547Q2050 571 2040 588Q2031 605 2011 605Q1984 605 1975 580Q1967 556 1967 515L1967 0L1792 0ZM2488 -107Q2410 -107 2365 -95Q2321 -82 2278 -47L2338 54Q2402 16 2465 16Q2506 16 2527 42Q2548 68 2548 113L2548 153Q2527 78 2437 78Q2362 78 2326 129Q2291 180 2291 265L2291 540Q2291 637 2323 688Q2356 740 2437 740Q2484 740 2511 716Q2539 693 2548 650L2548 732L2727 732L2727 124Q2727 1 2670 -53Q2613 -107 2488 -107ZM2507 210Q2548 210 2548 284L2548 545Q2548 567 2536 587Q2524 607 2506 607Q2483 607 2475 590Q2467 574 2467 545L2467 284Q2467 251 2475 230Q2483 210 2507 210ZM2928 -8Q2843 -8 2811 48Q2780 105 2780 210Q2780 296 2802 342Q2825 388 2865 409Q2905 431 2987 457L3035 473L3035 475L3035 548Q3035 577 3023 592Q3012 608 2996 608Q2982 608 2971 595Q2961 582 2961 560L2961 516L2791 516L2791 540Q2791 648 2841 694Q2892 740 3006 740Q3097 740 3154 692Q3211 645 3211 558L3211 0L3037 0L3037 87Q3024 42 2995 17Q2967 -8 2928 -8ZM2997 128Q3017 128 3025 144Q3034 161 3034 185L3034 389Q2995 374 2976 351Q2958 328 2958 287L2958 193Q2958 128 2997 128ZM3622 0L3257 0L3257 107L3439 594L3265 594L3265 732L3620 732L3620 613L3448 131L3622 131L3622 0Z" fill="#ffffff" style=""></path></g></g></g></svg>